PathFileType	4	(X/Y/Z)	/Users/itak/Documents/Research/Walk-IL/dataset/trc/00198_00008.trc
DataRate	CameraRate	NumFrames	NumMarkers	Units	OrigDataRate	OrigDataStartFrame	OrigNumFrames
100.000000	100.000000	4	53	mm	100.000000	67	540
Frame#	Time	RPSI			LPSI			L3			STRN			T10			C7			CLAV			RBAK			LBAK			LSHO			LUPA			LAEL			LAOL			LWTS			LWPS			LFRA			LIFD			LHPS			LHTS			RSHO			RUPA			RAEL			RAOL			RWTS			RWPS			RFRA			RIFD			RHTS			RHPS			RBHD			LFHD			RFHD			LBHD			LHIP			RHIP			RASI			LASI			LKNE			LTHI			LANK			LTIP			LTOE			LMT1			LMT5			LHEE			RKNE			RTHI			RANK			RTIP			RTOE			RMT1			RMT5			RHEE			
		X1	Y1	Z1	X2	Y2	Z2	X3	Y3	Z3	X4	Y4	Z4	X5	Y5	Z5	X6	Y6	Z6	X7	Y7	Z7	X8	Y8	Z8	X9	Y9	Z9	X10	Y10	Z10	X11	Y11	Z11	X12	Y12	Z12	X13	Y13	Z13	X14	Y14	Z14	X15	Y15	Z15	X16	Y16	Z16	X17	Y17	Z17	X18	Y18	Z18	X19	Y19	Z19	X20	Y20	Z20	X21	Y21	Z21	X22	Y22	Z22	X23	Y23	Z23	X24	Y24	Z24	X25	Y25	Z25	X26	Y26	Z26	X27	Y27	Z27	X28	Y28	Z28	X29	Y29	Z29	X30	Y30	Z30	X31	Y31	Z31	X32	Y32	Z32	X33	Y33	Z33	X34	Y34	Z34	X35	Y35	Z35	X36	Y36	Z36	X37	Y37	Z37	X38	Y38	Z38	X39	Y39	Z39	X40	Y40	Z40	X41	Y41	Z41	X42	Y42	Z42	X43	Y43	Z43	X44	Y44	Z44	X45	Y45	Z45	X46	Y46	Z46	X47	Y47	Z47	X48	Y48	Z48	X49	Y49	Z49	X50	Y50	Z50	X51	Y51	Z51	X52	Y52	Z52	X53	Y53	Z53	

68	0.67	-1184.633666992188	1055.763305664062	-510.9955444335938	-1178.677734375	1054.438110351562	-636.15576171875	-1180.070190429688	1092.357055664062	-571.76123046875	-925.1926879882812	1298.300537109375	-566.1940307617188	-1214.61181640625	1248.649291992188	-584.677490234375	-1148.63720703125	1518.48046875	-596.2655639648438	-951.5570068359375	1411.505737304688	-578.2150268554688	-1222.8828125	1343.491088867188	-490.1086730957031	-1148.531860351562	1492.741577148438	-697.8756103515625	-1066.041015625	1477.885375976562	-770.7294921875	-1088.73388671875	1343.28369140625	-843.8902587890625	-1065.99609375	1123.332641601562	-855.4783935546875	-1125.345825195312	1110.464965820312	-791.9156494140625	-961.8237915039062	894.5274047851562	-794.738525390625	-1032.241943359375	871.3108520507812	-849.8172607421875	-1047.880981445312	1012.998168945312	-862.8197631835938	-949.72265625	712.2266235351562	-763.09619140625	-1010.957641601562	802.4816284179688	-839.9107666015625	-944.7877197265625	816.2417602539062	-810.0809936523438	-1098.015625	1497.489135742188	-411.0067138671875	-1120.296752929688	1430.00048828125	-341.8871154785156	-1126.001708984375	1139.875732421875	-286.8392944335938	-1131.368286132812	1132.4140625	-384.8665771484375	-982.8255004882812	916.1644287109375	-308.6943054199219	-1054.66943359375	897.6972045898438	-259.683837890625	-1099.671997070312	1068.261840820312	-268.6180725097656	-964.3270874023438	727.3587036132812	-332.7138671875	-954.7413940429688	823.0027465820312	-301.8557739257812	-1025.186767578125	816.1090698242188	-262.0697021484375	-1103.434936523438	1679.898803710938	-527.7534790039062	-916.9161987304688	1727.790283203125	-628.0083618164062	-938.8500366210938	1728.763549804688	-500.2716064453125	-1087.771850585938	1686.67236328125	-664.218505859375	-1069.812866210938	992.0634155273438	-748.37841796875	-1032.487915039062	1016.662292480469	-380.6921691894531	-950.1489868164062	1041.075805664062	-430.5843505859375	-946.9744262695312	1026.73828125	-688.9189453125	-1064.409057617188	494.0652770996094	-705.783935546875	-1053.392333984375	636.0828857421875	-736.1769409179688	-1155.340942382812	39.3902473449707	-704.8800659179688	-1107.805908203125	274.2111206054688	-718.8943481445312	-935.232666015625	38.61653900146484	-682.5643310546875	-985.6105346679688	38.84795379638672	-634.3876953125	-1048.332763671875	31.79594993591309	-746.3757934570312	-1205.061645507812	39.49052047729492	-635.5402221679688	-1045.87109375	513.7251586914062	-396.0091247558594	-991.9829711914062	780.0555419921875	-367.3594360351562	-1144.40185546875	37.01137542724609	-390.3118286132812	-1040.1337890625	396.6465759277344	-413.0352172851562	-920.9550170898438	41.19926834106445	-430.6786499023438	-977.596923828125	39.08811569213867	-474.3547668457031	-1030.31494140625	37.57507705688477	-358.0033264160156	-1195.175415039062	31.59247016906738	-456.72314453125	
69	0.68	-1184.707153320312	1055.997680664062	-510.9224853515625	-1178.922241210938	1054.788330078125	-636.1160888671875	-1180.190551757812	1092.67041015625	-571.6688842773438	-925.1342163085938	1298.501098632812	-566.318115234375	-1214.678344726562	1248.964233398438	-584.6449584960938	-1148.547485351562	1518.77490234375	-596.3255615234375	-951.4794311523438	1411.722900390625	-578.3487548828125	-1222.87548828125	1343.808959960938	-490.113037109375	-1148.514892578125	1492.968383789062	-697.9647827148438	-1066.029907226562	1478.130615234375	-770.8037719726562	-1088.701416015625	1343.585693359375	-844.0390014648438	-1065.826904296875	1123.626342773438	-855.6845703125	-1125.263793945312	1110.71337890625	-792.1455688476562	-961.5679321289062	894.8409423828125	-794.9886474609375	-1032.031982421875	871.6099853515625	-850.1075439453125	-1047.654541015625	1013.302978515625	-863.0556640625	-949.3265380859375	712.5592041015625	-763.344970703125	-1010.788269042969	802.808349609375	-840.22607421875	-944.583251953125	816.58984375	-810.3897094726562	-1097.902587890625	1497.857177734375	-411.1099243164062	-1120.1357421875	1430.343872070312	-341.9609680175781	-1125.840454101562	1140.213012695312	-286.9322204589844	-1131.287109375	1132.7587890625	-384.970703125	-982.657470703125	916.5125732421875	-308.8799438476562	-1054.59033203125	898.0084838867188	-259.846435546875	-1099.507934570312	1068.591064453125	-268.7307739257812	-964.3113403320312	727.6426391601562	-332.978515625	-954.6419677734375	823.2954711914062	-302.1093139648438	-1025.03271484375	816.4117431640625	-262.2300415039062	-1103.310424804688	1680.162353515625	-527.9173583984375	-916.8060913085938	1727.960327148438	-628.22021484375	-938.7090454101562	1728.964111328125	-500.460693359375	-1087.69677734375	1686.892822265625	-664.3987426757812	-1070.209228515625	992.45703125	-748.5330200195312	-1032.515991210938	1016.693664550781	-380.6893310546875	-950.2637329101562	1041.1796875	-430.7315063476562	-947.2117919921875	1027.030395507812	-689.0469360351562	-1063.971923828125	494.2732543945312	-705.9680786132812	-1053.327880859375	636.359130859375	-736.3743896484375	-1155.2900390625	39.45980453491211	-704.8469848632812	-1107.572143554688	274.3296508789062	-718.9830322265625	-935.1491088867188	38.59092712402344	-682.5596313476562	-985.5466918945312	38.87165451049805	-634.4155883789062	-1048.318481445312	31.75757026672363	-746.416015625	-1205.002685546875	39.73998260498047	-635.571533203125	-1045.785888671875	513.7608032226562	-396.1649780273438	-992.0133056640625	780.0684814453125	-367.5479125976562	-1144.385986328125	37.00103378295898	-390.2948303222656	-1040.018920898438	396.6296997070312	-413.1323547363281	-920.9649658203125	41.19944381713867	-430.6920776367188	-977.597900390625	39.08095169067383	-474.3670959472656	-1030.312744140625	37.58211517333984	-358.0119018554688	-1195.182983398438	31.59665489196777	-456.7035827636719	
70	0.6900000000000001	-1184.78955078125	1056.242309570312	-510.8216247558594	-1179.219604492188	1055.152587890625	-636.0629272460938	-1180.34619140625	1092.9931640625	-571.5584716796875	-925.0917358398438	1298.723754882812	-566.4451904296875	-1214.766723632812	1249.28759765625	-584.5807495117188	-1148.44580078125	1519.064208984375	-596.3499145507812	-951.4149169921875	1411.955078125	-578.471435546875	-1222.859130859375	1344.143310546875	-490.0847778320312	-1148.5322265625	1493.19140625	-698.041015625	-1066.060302734375	1478.387084960938	-770.8707885742188	-1088.69287109375	1343.9052734375	-844.1740112304688	-1065.691650390625	1123.94140625	-855.88427734375	-1125.229858398438	1110.978759765625	-792.362060546875	-961.3071899414062	895.1798706054688	-795.2411499023438	-1031.841430664062	871.9301147460938	-850.3949584960938	-1047.451782226562	1013.619750976562	-863.2853393554688	-948.826904296875	712.9085083007812	-763.5618286132812	-1010.585388183594	803.1459350585938	-840.5335083007812	-944.3678588867188	816.972900390625	-810.702880859375	-1097.798583984375	1498.248046875	-411.1982421875	-1119.966796875	1430.710205078125	-342.0217895507812	-1125.677490234375	1140.573120117188	-287.0044555664062	-1131.217651367188	1133.1318359375	-385.0554504394531	-982.4994506835938	916.8767700195312	-309.0775146484375	-1054.513549804688	898.33642578125	-260.0174560546875	-1099.339233398438	1068.942749023438	-268.8349609375	-964.2911376953125	727.9481201171875	-333.2763671875	-954.5214233398438	823.622314453125	-302.3843994140625	-1024.873046875	816.74169921875	-262.4015197753906	-1103.191650390625	1680.448364257812	-528.07861328125	-916.7117309570312	1728.134155273438	-628.4470825195312	-938.5779418945312	1729.173217773438	-500.666748046875	-1087.655151367188	1687.12255859375	-664.5794067382812	-1070.648559570312	992.8677368164062	-748.68212890625	-1032.539672851562	1016.741882324219	-380.6785583496094	-950.4276123046875	1041.278686523438	-430.8884582519531	-947.4945678710938	1027.332153320312	-689.1793212890625	-1063.581787109375	494.4996337890625	-706.144287109375	-1053.295166015625	636.6370849609375	-736.5528564453125	-1155.233520507812	39.53032302856445	-704.7967529296875	-1107.374267578125	274.4588012695312	-719.06201171875	-935.063720703125	38.56856155395508	-682.5609741210938	-985.478271484375	38.89960479736328	-634.4435424804688	-1048.303955078125	31.72642707824707	-746.447265625	-1204.943603515625	39.97919082641602	-635.565185546875	-1045.719482421875	513.8128051757812	-396.3092346191406	-992.0914916992188	780.068359375	-367.7342529296875	-1144.378540039062	36.99035263061523	-390.27294921875	-1039.919799804688	396.6093139648438	-413.2111511230469	-920.981201171875	41.20029067993164	-430.7044982910156	-977.6011352539062	39.07744979858398	-474.3765258789062	-1030.313720703125	37.58799362182617	-358.0170593261719	-1195.1923828125	31.60008811950684	-456.6810607910156	
71	0.7000000000000001	-1184.880737304688	1056.49365234375	-510.6976013183594	-1179.559692382812	1055.522094726562	-635.9967651367188	-1180.533325195312	1093.319213867188	-571.4359130859375	-925.07470703125	1298.962768554688	-566.5787963867188	-1214.874755859375	1249.612915039062	-584.487060546875	-1148.349365234375	1519.346801757812	-596.349609375	-951.365234375	1412.195678710938	-578.5816650390625	-1222.828735351562	1344.488525390625	-490.0235595703125	-1148.581665039062	1493.410278320312	-698.1043090820312	-1066.1279296875	1478.649780273438	-770.9347534179688	-1088.714477539062	1344.230590820312	-844.2922973632812	-1065.597534179688	1124.267822265625	-856.0786743164062	-1125.239868164062	1111.251953125	-792.5643310546875	-961.0474853515625	895.5369873046875	-795.4964599609375	-1031.665405273438	872.2639770507812	-850.6760864257812	-1047.27685546875	1013.941223144531	-863.508056640625	-948.2133178710938	713.26025390625	-763.7427978515625	-1010.338317871094	803.4864501953125	-840.8313598632812	-944.1380615234375	817.3807373046875	-811.0137329101562	-1097.700073242188	1498.644165039062	-411.2721557617188	-1119.790771484375	1431.088989257812	-342.0680847167969	-1125.520263671875	1140.946044921875	-287.0526733398438	-1131.162109375	1133.521728515625	-385.1124572753906	-982.3584594726562	917.2445678710938	-309.2856140136719	-1054.42626953125	898.6727294921875	-260.1909484863281	-1099.1689453125	1069.304809570312	-268.9248352050781	-964.2821655273438	728.261962890625	-333.5996704101562	-954.375	823.9779663085938	-302.6798400878906	-1024.7138671875	817.0924682617188	-262.5864868164062	-1103.077880859375	1680.747680664062	-528.2349243164062	-916.637451171875	1728.30517578125	-628.6902465820312	-938.4559326171875	1729.38818359375	-500.8919067382812	-1087.64404296875	1687.357543945312	-664.760986328125	-1071.120361328125	993.2874755859375	-748.82177734375	-1032.562866210938	1016.805786132812	-380.6605224609375	-950.6378173828125	1041.36865234375	-431.0534973144531	-947.8331298828125	1027.637939453125	-689.323486328125	-1063.268432617188	494.7406005859375	-706.3104858398438	-1053.317504882812	636.9161376953125	-736.7113647460938	-1155.171875	39.59805679321289	-704.7228393554688	-1107.221801757812	274.6000671386719	-719.1282958984375	-934.9756469726562	38.54966354370117	-682.5696411132812	-985.4028930664062	38.93187713623047	-634.4723510742188	-1048.29052734375	31.70213317871094	-746.4675903320312	-1204.875122070312	40.20535659790039	-635.5071411132812	-1045.674926757812	513.8815307617188	-396.434326171875	-992.2167358398438	780.0533447265625	-367.9166259765625	-1144.382690429688	36.98147583007812	-390.2458801269531	-1039.838989257812	396.5833740234375	-413.2671203613281	-921.0039672851562	41.20271301269531	-430.715576171875	-977.60888671875	39.07783508300781	-474.3830261230469	-1030.318115234375	37.59249496459961	-358.0191650390625	-1195.203369140625	31.60009384155273	-456.6563110351562	
